<svg width="199" height="25" viewBox="0 0 199 25" fill="none" xmlns="http://www.w3.org/2000/svg">
<path fill-rule="evenodd" clip-rule="evenodd" d="M42.308 23.0261C42.308 23.5192 42.0596 23.7658 41.5627 23.7658H32.8091C32.5976 23.7658 32.4258 23.7042 32.2937 23.5809C32.1615 23.4576 32.0955 23.2834 32.0955 23.0582C32.0955 22.8652 32.1404 22.7098 32.2302 22.5918C32.3201 22.4739 32.4602 22.3774 32.6505 22.3024L33.3324 22.0933C33.5015 22.0397 33.6337 21.9378 33.7288 21.7877C33.824 21.6376 33.8716 21.4232 33.8716 21.1444V11.849C33.8716 11.6989 33.8346 11.5729 33.7606 11.4711C33.6865 11.3692 33.5491 11.2754 33.3482 11.1896L32.4285 10.8841C32.1853 10.7662 32.0109 10.6402 31.9052 10.5062C31.7994 10.3721 31.7466 10.2086 31.7466 10.0157C31.7466 9.82267 31.8127 9.66453 31.9448 9.54123L31.9967 9.49789C32.1233 9.40349 32.2884 9.35629 32.4919 9.35629H33.8834L33.8725 9.26231C33.8428 9.07435 33.7685 8.89393 33.6495 8.72105C33.491 8.49054 33.3112 8.23054 33.1104 7.94107C32.9095 7.65159 32.7298 7.30583 32.5712 6.90377C32.4126 6.50172 32.3333 6.00586 32.3333 5.41618C32.3333 4.01168 32.8091 2.88862 33.7606 2.04699C34.712 1.20536 36.0653 0.784546 37.8202 0.784546C38.9514 0.784546 39.8897 0.966808 40.635 1.33134C41.3803 1.69586 41.938 2.181 42.308 2.78676C42.6781 3.39252 42.8631 4.05457 42.8631 4.7729C42.8631 5.61989 42.6437 6.25513 42.205 6.67862C41.7662 7.10212 41.2033 7.31387 40.5161 7.31387C39.7549 7.31387 39.1417 7.06727 38.6765 6.57409C38.2114 6.08091 37.9788 5.4269 37.9788 4.61208V3.18077C37.9788 2.80553 37.9048 2.52945 37.7568 2.35255C37.6088 2.17564 37.3815 2.08719 37.0749 2.08719C36.6837 2.08719 36.3877 2.22121 36.1868 2.48924C35.986 2.75728 35.8855 3.14325 35.8855 3.64715C35.8855 4.16178 36.0045 4.64424 36.2423 5.09454C36.4802 5.54484 36.7736 5.96565 37.1225 6.35698C37.4713 6.74831 37.8202 7.12356 38.1691 7.48273C38.518 7.84189 38.8113 8.1957 39.0492 8.54414L39.117 8.6486C39.2455 8.85734 39.3311 9.06512 39.3739 9.27194L39.3884 9.35629H41.7371C41.9803 9.35629 42.168 9.40722 42.3001 9.50907C42.4323 9.61092 42.4983 9.76906 42.4983 9.98349C42.4983 10.3051 42.3609 10.5678 42.086 10.7715C41.8112 10.9752 41.3777 11.0771 40.7857 11.0771H39.6597V21.0962C39.6597 21.3964 39.7047 21.6269 39.7945 21.7877C39.8844 21.9486 40.0298 22.045 40.2306 22.0772L41.5944 22.2863C41.8376 22.3184 42.0173 22.3962 42.1336 22.5195C42.2499 22.6428 42.308 22.8116 42.308 23.0261ZM11.0836 23.396C10.1321 23.857 9.02202 24.0875 7.75338 24.0875C6.41073 24.0875 5.20816 23.8034 4.14567 23.2351C3.08318 22.6669 2.24535 21.844 1.63217 20.7665C1.01899 19.689 0.712402 18.3784 0.712402 16.8345C0.712402 15.3442 1.03221 14.0121 1.67181 12.8381C2.31142 11.6641 3.20212 10.7367 4.34389 10.0559C5.48567 9.37508 6.81775 9.03467 8.34012 9.03467C9.64048 9.03467 10.7373 9.22766 11.6307 9.61363C12.524 9.9996 13.2059 10.5223 13.6764 11.1816C14.1468 11.841 14.382 12.5781 14.382 13.3929C14.382 14.2506 14.1362 14.9234 13.6446 15.4112C13.153 15.899 12.4844 16.1429 11.6386 16.1429C10.7717 16.1429 10.1136 15.8937 9.66427 15.3951C9.21496 14.8966 8.9903 14.2131 8.9903 13.3447V12.3154C8.9903 11.7901 8.89515 11.3934 8.70486 11.1253C8.51456 10.8573 8.24497 10.7233 7.8961 10.7233C7.54722 10.7233 7.2327 10.8653 6.95254 11.1495C6.67239 11.4336 6.45566 11.8598 6.30236 12.428C6.14907 12.9962 6.07242 13.6985 6.07242 14.5347C6.07242 15.7355 6.2495 16.7433 6.60367 17.5582C6.95783 18.373 7.4415 18.9841 8.05468 19.3915C8.66786 19.7989 9.36561 20.0026 10.1479 20.0026C10.9303 20.0026 11.5857 19.8874 12.1143 19.6569C12.6429 19.4264 13.05 19.0377 13.3354 18.4909C13.494 18.3408 13.6182 18.2443 13.7081 18.2015C13.7979 18.1586 13.8852 18.1371 13.9697 18.1371C14.0754 18.1478 14.1627 18.1988 14.2314 18.2899C14.3001 18.381 14.3292 18.5231 14.3186 18.7161C14.234 19.7668 13.9116 20.6942 13.3513 21.4983C12.7909 22.3024 12.035 22.9349 11.0836 23.396ZM27.2033 23.0743C26.014 23.7283 24.6317 24.0553 23.0565 24.0553C21.5235 24.0553 20.1782 23.7364 19.0206 23.0984C17.8629 22.4605 16.9617 21.5787 16.3168 20.4529C15.6719 19.3272 15.3494 18.0246 15.3494 16.545C15.3494 15.1298 15.6877 13.8566 16.3644 12.7255C17.041 11.5944 17.9766 10.6965 19.1712 10.0318C20.3659 9.36704 21.7402 9.03467 23.2943 9.03467C24.8378 9.03467 26.1858 9.35631 27.3381 9.9996C28.4905 10.6429 29.3891 11.5328 30.034 12.6692C30.6789 13.8057 31.0013 15.1191 31.0013 16.6093C31.0013 18.0246 30.6657 19.2924 29.9944 20.4127C29.323 21.5331 28.3927 22.4203 27.2033 23.0743ZM24.2617 22.3828C23.9339 22.4471 23.6141 22.3024 23.3022 21.9486C22.9904 21.5948 22.6944 20.9997 22.4142 20.1635C22.134 19.3272 21.8671 18.2283 21.6134 16.8666C21.3702 15.505 21.2328 14.3846 21.2011 13.5055C21.1693 12.6263 21.2328 11.9616 21.3913 11.5113C21.5499 11.061 21.7931 10.7983 22.1208 10.7233C22.4486 10.659 22.7684 10.8037 23.0802 11.1575C23.3921 11.5113 23.6908 12.1063 23.9762 12.9426C24.2617 13.7789 24.5312 14.8778 24.785 16.2394C25.0387 17.6011 25.1788 18.7241 25.2052 19.6086C25.2316 20.4931 25.1629 21.1606 24.9991 21.6108C24.8352 22.0611 24.5894 22.3185 24.2617 22.3828ZM52.6317 23.7658C53.1286 23.7658 53.377 23.5192 53.377 23.0261C53.377 22.8116 53.3189 22.6428 53.2026 22.5195C53.0863 22.3962 52.9066 22.3184 52.6634 22.2863L51.2996 22.0772C51.0988 22.045 50.9534 21.9486 50.8635 21.7877C50.7737 21.6269 50.7287 21.3964 50.7287 21.0962V11.0771H51.8547C52.4467 11.0771 52.8802 10.9752 53.155 10.7715C53.4299 10.5678 53.5673 10.3051 53.5673 9.98349C53.5673 9.76906 53.5013 9.61092 53.3691 9.50907C53.237 9.40722 53.0493 9.35629 52.8061 9.35629H50.4574L50.4429 9.27194C50.4001 9.06512 50.3145 8.85734 50.186 8.6486L50.1182 8.54414C49.8803 8.1957 49.587 7.84189 49.2381 7.48273C48.8892 7.12356 48.5403 6.74831 48.1915 6.35698C47.8426 5.96565 47.5492 5.54484 47.3113 5.09454C47.0735 4.64424 46.9545 4.16178 46.9545 3.64715C46.9545 3.14325 47.055 2.75728 47.2558 2.48924C47.4567 2.22121 47.7527 2.08719 48.1439 2.08719C48.4505 2.08719 48.6778 2.17564 48.8258 2.35255C48.9738 2.52945 49.0478 2.80553 49.0478 3.18077V4.61208C49.0478 5.4269 49.2804 6.08091 49.7455 6.57409C50.2107 7.06727 50.8239 7.31387 51.5851 7.31387C52.2723 7.31387 52.8352 7.10212 53.274 6.67862C53.7127 6.25513 53.9321 5.61989 53.9321 4.7729C53.9321 4.05457 53.7471 3.39252 53.377 2.78676C53.007 2.181 52.4493 1.69586 51.704 1.33134C50.9587 0.966808 50.0204 0.784546 48.8892 0.784546C47.1343 0.784546 45.781 1.20536 44.8296 2.04699C43.8781 2.88862 43.4023 4.01168 43.4023 5.41618C43.4023 6.00586 43.4816 6.50172 43.6402 6.90377C43.7988 7.30583 43.9785 7.65159 44.1794 7.94107C44.3802 8.23054 44.56 8.49054 44.7185 8.72105C44.8375 8.89393 44.9118 9.07435 44.9415 9.26231L44.9524 9.35629H43.5609C43.3574 9.35629 43.1923 9.40349 43.0657 9.49789L43.0138 9.54123C42.8817 9.66453 42.8156 9.82267 42.8156 10.0157C42.8156 10.2086 42.8684 10.3721 42.9742 10.5062C43.0799 10.6402 43.2543 10.7662 43.4975 10.8841L44.4172 11.1896C44.6181 11.2754 44.7555 11.3692 44.8296 11.4711C44.9036 11.5729 44.9406 11.6989 44.9406 11.849V21.1444C44.9406 21.4232 44.893 21.6376 44.7978 21.7877C44.7027 21.9378 44.5705 22.0397 44.4014 22.0933L43.7195 22.3024C43.5292 22.3774 43.3891 22.4739 43.2992 22.5918C43.2094 22.7098 43.1645 22.8652 43.1645 23.0582C43.1645 23.2834 43.2305 23.4576 43.3627 23.5809C43.4948 23.7042 43.6666 23.7658 43.8781 23.7658H52.6317ZM65.0485 23.2995C64.023 23.8248 62.839 24.0875 61.4963 24.0875C60.0162 24.0875 58.7159 23.7793 57.5952 23.1628C56.4746 22.5463 55.5998 21.6832 54.9707 20.5736C54.3417 19.4639 54.0272 18.18 54.0272 16.7219C54.0272 15.1887 54.3311 13.8459 54.939 12.6933C55.5469 11.5408 56.427 10.6429 57.5794 9.9996C58.7317 9.35631 60.1167 9.03467 61.7342 9.03467C63.1086 9.03467 64.2926 9.30539 65.2864 9.84682C66.2802 10.3882 67.044 11.1227 67.5779 12.0501C68.1118 12.9775 68.3787 14.0094 68.3787 15.1459C68.3787 15.639 68.2466 16.0277 67.9823 16.3118L67.9192 16.3749C67.6587 16.6169 67.2992 16.738 66.8405 16.738H59.5912L59.6067 16.8122C59.799 17.6951 60.1276 18.4021 60.5924 18.9332C61.3853 19.8391 62.4425 20.2921 63.764 20.2921C64.6098 20.2921 65.3578 20.0991 66.0079 19.7132C66.6581 19.3272 67.0942 18.7911 67.3162 18.105C67.4431 17.9656 67.5567 17.8718 67.6572 17.8235C67.7576 17.7753 67.8448 17.7512 67.9188 17.7512C68.0246 17.7512 68.1144 17.794 68.1884 17.8798C68.2624 17.9656 68.2994 18.1103 68.2994 18.314C68.2994 19.3647 68.014 20.327 67.4431 21.2008C66.8722 22.0746 66.074 22.7741 65.0485 23.2995ZM59.4257 15.4488C59.4106 15.2021 59.4031 14.9457 59.4031 14.6795C59.4031 13.6717 59.4771 12.8783 59.6251 12.2994C59.7731 11.7204 59.9634 11.3103 60.196 11.0691C60.4285 10.8279 60.6876 10.7072 60.973 10.7072C61.343 10.7072 61.6893 11.0235 62.0117 11.6561C62.3342 12.2886 62.4954 13.3393 62.4954 14.8082C62.4954 15.2585 62.2945 15.4836 61.8928 15.4836H59.4277L59.4257 15.4488ZM80.2088 23.2995C79.1833 23.8248 77.9993 24.0875 76.6566 24.0875C75.1765 24.0875 73.8762 23.7793 72.7555 23.1628C71.6349 22.5463 70.7601 21.6832 70.131 20.5736C69.502 19.4639 69.1875 18.18 69.1875 16.7219C69.1875 15.1887 69.4914 13.8459 70.0993 12.6933C70.7072 11.5408 71.5873 10.6429 72.7397 9.9996C73.892 9.35631 75.277 9.03467 76.8945 9.03467C78.2689 9.03467 79.4529 9.30539 80.4467 9.84682C81.4405 10.3882 82.2043 11.1227 82.7382 12.0501C83.2721 12.9775 83.539 14.0094 83.539 15.1459C83.539 15.639 83.4069 16.0277 83.1426 16.3118L83.0795 16.3749C82.819 16.6169 82.4594 16.738 82.0008 16.738H74.7514L74.767 16.8122C74.9593 17.6951 75.2879 18.4021 75.7527 18.9332C76.5456 19.8391 77.6028 20.2921 78.9243 20.2921C79.7701 20.2921 80.5181 20.0991 81.1682 19.7132C81.8184 19.3272 82.2545 18.7911 82.4765 18.105C82.6034 17.9656 82.717 17.8718 82.8175 17.8235C82.9179 17.7753 83.0051 17.7512 83.0791 17.7512C83.1848 17.7512 83.2747 17.794 83.3487 17.8798C83.4227 17.9656 83.4597 18.1103 83.4597 18.314C83.4597 19.3647 83.1743 20.327 82.6034 21.2008C82.0325 22.0746 81.2343 22.7741 80.2088 23.2995ZM74.586 15.4488C74.5709 15.2021 74.5633 14.9457 74.5633 14.6795C74.5633 13.6717 74.6374 12.8783 74.7854 12.2994C74.9334 11.7204 75.1237 11.3103 75.3562 11.0691C75.5888 10.8279 75.8478 10.7072 76.1333 10.7072C76.5033 10.7072 76.8495 11.0235 77.172 11.6561C77.4944 12.2886 77.6557 13.3393 77.6557 14.8082C77.6557 15.2585 77.4548 15.4836 77.0531 15.4836H74.588L74.586 15.4488ZM93.7278 23.5648C93.5956 23.6988 93.4027 23.7659 93.149 23.7659H85.2199C84.9874 23.7659 84.805 23.7015 84.6728 23.5729C84.5407 23.4442 84.4746 23.2673 84.4746 23.0422C84.4746 22.8706 84.5143 22.7286 84.5936 22.616C84.6728 22.5034 84.7812 22.3989 84.9186 22.3024L85.2834 22.1576C85.4208 22.0933 85.516 21.9915 85.5688 21.8521C85.6217 21.7127 85.6481 21.4822 85.6481 21.1606V12.9909C85.6481 12.7336 85.619 12.5486 85.5609 12.436C85.5028 12.3235 85.405 12.235 85.2675 12.1707L84.8552 12.1224C84.7072 12.0367 84.5988 11.9455 84.5301 11.849C84.4614 11.7525 84.427 11.6292 84.427 11.4791C84.427 11.3076 84.4799 11.1548 84.5856 11.0208C84.6913 10.8868 84.8711 10.7715 85.1248 10.675L89.6285 9.3724C89.8928 9.26518 90.1148 9.19013 90.2945 9.14725C90.4743 9.10436 90.6275 9.08292 90.7544 9.08292C90.9341 9.08292 91.0689 9.14725 91.1588 9.2759L91.1877 9.32256C91.2618 9.45704 91.313 9.672 91.3412 9.96743L91.4619 12.4664L91.4894 12.3742C91.543 12.2001 91.6019 12.0331 91.6662 11.8732C92.0521 10.9136 92.5622 10.2006 93.1965 9.73424C93.8309 9.26786 94.5233 9.03467 95.2739 9.03467C96.1831 9.03467 96.8809 9.34023 97.3672 9.95135C97.8535 10.5625 98.0967 11.4899 98.0967 12.7335C98.0967 13.9665 97.843 14.8725 97.3355 15.4514C96.828 16.0304 96.1726 16.3199 95.3691 16.3199C94.5868 16.3199 94.0079 16.1215 93.6326 15.7248C93.2573 15.3281 93.0591 14.7653 93.038 14.0362L93.0221 13.3929C93.0115 13.1463 92.964 12.9533 92.8794 12.814C92.7948 12.6746 92.6574 12.6049 92.4671 12.6049C92.2768 12.6049 92.1103 12.7041 91.9676 12.9024C91.8248 13.1008 91.7165 13.4036 91.6425 13.811C91.5685 14.2185 91.5315 14.7384 91.5315 15.371V21.0319C91.5315 21.3321 91.579 21.5706 91.6742 21.7476C91.7693 21.9245 91.9173 22.0343 92.1182 22.0772L93.3076 22.3185C93.5296 22.3506 93.6881 22.4337 93.7833 22.5677C93.8784 22.7018 93.926 22.8599 93.926 23.0422C93.926 23.2566 93.8599 23.4308 93.7278 23.5648ZM106.406 24.0553C107.982 24.0553 109.364 23.7283 110.553 23.0743C111.743 22.4203 112.673 21.5331 113.344 20.4127C114.016 19.2924 114.351 18.0246 114.351 16.6093C114.351 15.1191 114.029 13.8057 113.384 12.6692C112.739 11.5328 111.84 10.6429 110.688 9.9996C109.536 9.35631 108.188 9.03467 106.644 9.03467C105.09 9.03467 103.716 9.36704 102.521 10.0318C101.326 10.6965 100.391 11.5944 99.7143 12.7255C99.0377 13.8566 98.6993 15.1298 98.6993 16.545C98.6993 18.0246 99.0218 19.3272 99.6667 20.4529C100.312 21.5787 101.213 22.4605 102.37 23.0984C103.528 23.7364 104.873 24.0553 106.406 24.0553ZM106.652 21.9486C106.964 22.3024 107.284 22.4471 107.611 22.3828C107.939 22.3185 108.185 22.0611 108.349 21.6108C108.513 21.1606 108.581 20.4931 108.555 19.6086C108.529 18.7241 108.389 17.6011 108.135 16.2394C107.881 14.8778 107.611 13.7789 107.326 12.9426C107.041 12.1063 106.742 11.5113 106.43 11.1575C106.118 10.8037 105.798 10.659 105.471 10.7233C105.143 10.7983 104.9 11.061 104.741 11.5113C104.583 11.9616 104.519 12.6263 104.551 13.5055C104.583 14.3846 104.72 15.505 104.963 16.8666C105.217 18.2283 105.484 19.3272 105.764 20.1635C106.044 20.9997 106.34 21.5948 106.652 21.9486ZM126.927 24.0875C127.815 24.0875 128.544 23.924 129.115 23.597C129.686 23.27 130.111 22.8813 130.392 22.431C130.672 21.9807 130.812 21.568 130.812 21.1927C130.812 21.0319 130.777 20.8979 130.709 20.7907C130.64 20.6835 130.548 20.6298 130.431 20.6298C130.378 20.6298 130.331 20.6406 130.289 20.662C130.246 20.6835 130.209 20.7156 130.178 20.7585C130.125 20.9515 130.043 21.0855 129.932 21.1606C129.821 21.2356 129.702 21.2731 129.575 21.2731C129.395 21.2731 129.26 21.2115 129.171 21.0882C129.081 20.9649 129.036 20.8014 129.036 20.5977V13.4894C129.036 12.0742 128.557 10.9779 127.601 10.2006C126.644 9.42332 125.145 9.03467 123.105 9.03467C121.519 9.03467 120.195 9.23302 119.132 9.62971C118.07 10.0264 117.272 10.533 116.738 11.1495C116.204 11.7659 115.937 12.3958 115.937 13.0391C115.937 13.7253 116.135 14.2479 116.532 14.6071C116.928 14.9663 117.502 15.1459 118.252 15.1459C119.172 15.1459 119.896 14.8966 120.425 14.398C120.953 13.8995 121.218 13.2535 121.218 12.4602V11.2379C121.218 10.9377 121.31 10.7045 121.495 10.5383C121.68 10.3722 121.91 10.2891 122.185 10.2891C122.481 10.2891 122.716 10.399 122.891 10.6188C123.065 10.8385 123.152 11.1361 123.152 11.5113L123.152 16.1992L123.068 16.1809C122.813 16.1316 122.517 16.1035 122.182 16.0965L122.011 16.0947C119.738 16.0947 118.043 16.4807 116.928 17.2526C115.813 18.0246 115.255 19.102 115.255 20.4851C115.255 21.5358 115.638 22.3989 116.405 23.0743C117.171 23.7498 118.189 24.0875 119.457 24.0875C120.409 24.0875 121.297 23.8918 122.122 23.5005C122.74 23.207 123.243 22.8215 123.629 22.3441L123.651 22.3162L123.674 22.3882C123.796 22.7358 124.02 23.0472 124.344 23.3225L124.445 23.404C125.032 23.8597 125.859 24.0875 126.927 24.0875ZM121.464 21.056C121.723 21.4045 122.063 21.5787 122.486 21.5787L122.577 21.5756C122.757 21.563 122.932 21.5128 123.1 21.4248L123.152 21.3956V17.2687L123.073 17.2446C122.893 17.1964 122.682 17.1722 122.439 17.1722C122.026 17.1722 121.696 17.3652 121.448 17.7512C121.199 18.1372 121.075 18.7054 121.075 19.4559C121.075 20.1742 121.205 20.7076 121.464 21.056ZM138.107 24.1357C139.988 24.1357 141.431 23.7015 142.436 22.8331C143.44 21.9647 143.942 20.7799 143.942 19.279C143.942 18.3676 143.773 17.5689 143.435 16.8827C143.097 16.1966 142.505 15.5881 141.659 15.0574C140.813 14.5267 139.624 14.0255 138.091 13.5537C137.52 13.3715 137.078 13.1865 136.767 12.9989C136.455 12.8113 136.241 12.6103 136.124 12.3958C136.008 12.1814 135.95 11.9509 135.95 11.7043C135.95 11.3398 136.082 11.0449 136.346 10.8198C136.611 10.5946 137.002 10.4821 137.52 10.4821C138.239 10.4821 138.918 10.7233 139.558 11.2058C140.197 11.6882 140.903 12.5138 141.675 13.6824C141.875 13.929 142.076 14.1086 142.277 14.2211C142.478 14.3337 142.668 14.3686 142.848 14.3257C143.07 14.2613 143.208 14.1139 143.26 13.8834C143.313 13.6529 143.303 13.3232 143.229 12.8944L142.816 9.93527C142.774 9.62435 142.695 9.40456 142.579 9.2759C142.462 9.14725 142.309 9.08292 142.119 9.08292C141.949 9.08292 141.738 9.14189 141.484 9.25982C141.231 9.37776 140.98 9.49837 140.731 9.62167C140.483 9.74496 140.295 9.80661 140.168 9.80661C140.052 9.80661 139.88 9.74228 139.653 9.61363C139.425 9.48497 139.106 9.35631 138.693 9.22766C138.281 9.099 137.747 9.03467 137.092 9.03467C136.003 9.03467 135.022 9.23302 134.15 9.62971C133.278 10.0264 132.591 10.592 132.088 11.3264C131.586 12.0608 131.335 12.9373 131.335 13.9558C131.335 14.8564 131.523 15.6444 131.898 16.3199C132.273 16.9953 132.847 17.5743 133.619 18.0567C134.39 18.5392 135.363 18.9305 136.537 19.2307C137.298 19.4344 137.882 19.6408 138.289 19.8499C138.696 20.0589 138.976 20.2868 139.129 20.5334C139.283 20.7799 139.359 21.0533 139.359 21.3535C139.359 21.7502 139.227 22.0772 138.963 22.3345C138.699 22.5919 138.297 22.7205 137.758 22.7205C137.25 22.7205 136.767 22.6106 136.307 22.3908C135.847 22.171 135.374 21.7931 134.887 21.257C134.401 20.721 133.857 19.9866 133.254 19.0538C133.074 18.8072 132.871 18.6357 132.643 18.5392C132.416 18.4427 132.186 18.448 131.954 18.5553C131.732 18.641 131.589 18.8233 131.525 19.1021C131.462 19.3808 131.478 19.7239 131.573 20.1313L132.065 23.3316C132.139 23.6533 132.244 23.8677 132.382 23.9749C132.519 24.0821 132.667 24.1357 132.826 24.1357C133.006 24.1357 133.225 24.0768 133.484 23.9588L134.261 23.605C134.52 23.4871 134.729 23.4281 134.887 23.4281C135.046 23.4281 135.255 23.4871 135.514 23.605C135.773 23.723 136.111 23.8409 136.529 23.9588C136.946 24.0768 137.472 24.1357 138.107 24.1357ZM153.14 23.5326C152.442 23.9025 151.618 24.0875 150.666 24.0875C149.059 24.0875 147.851 23.6961 147.043 22.9135C146.234 22.1308 145.829 20.8978 145.829 19.2146V11.9455C145.829 11.7203 145.808 11.5488 145.766 11.4309C145.724 11.3129 145.618 11.2164 145.449 11.1414L144.703 10.9002C144.524 10.8144 144.407 10.7099 144.355 10.5866C144.302 10.4633 144.275 10.3105 144.275 10.1282C144.275 9.90307 144.355 9.71812 144.513 9.57339C144.672 9.42865 144.867 9.35628 145.1 9.35628H145.877C145.972 9.35628 146.073 9.31875 146.178 9.2437C146.284 9.16865 146.427 9.01855 146.606 8.79341L149.54 6.33285C149.752 6.07553 149.963 5.87987 150.174 5.74585C150.386 5.61184 150.597 5.54483 150.809 5.54483C151.052 5.54483 151.242 5.61988 151.38 5.76998L151.423 5.82319C151.532 5.97355 151.586 6.19168 151.586 6.47759L151.585 9.35628H154.9C155.133 9.35628 155.312 9.4072 155.439 9.50906C155.566 9.61091 155.63 9.76905 155.63 9.98348C155.63 10.2837 155.497 10.541 155.233 10.7554L155.174 10.7997C154.908 10.9846 154.504 11.0771 153.965 11.0771H151.585L151.586 18.4105C151.586 19.2146 151.721 19.8096 151.99 20.1956C152.26 20.5816 152.654 20.7745 153.172 20.7745C153.394 20.7745 153.6 20.7263 153.79 20.6298C153.98 20.5333 154.152 20.4073 154.305 20.2519C154.459 20.0964 154.604 19.9222 154.742 19.7292C154.879 19.5362 155.011 19.3432 155.138 19.1503C155.244 19.1074 155.336 19.1261 155.416 19.2065C155.495 19.287 155.529 19.4505 155.519 19.6971C155.445 20.5655 155.204 21.3294 154.797 21.9887C154.39 22.6481 153.838 23.1627 153.14 23.5326ZM163.527 24.0875C164.87 24.0875 166.054 23.8248 167.079 23.2995C168.105 22.7741 168.903 22.0746 169.474 21.2008C170.045 20.327 170.33 19.3647 170.33 18.314C170.33 18.1103 170.293 17.9656 170.219 17.8798C170.145 17.794 170.055 17.7512 169.95 17.7512C169.876 17.7512 169.788 17.7753 169.688 17.8235C169.587 17.8718 169.474 17.9656 169.347 18.105C169.125 18.7911 168.689 19.3272 168.039 19.7132C167.388 20.0991 166.64 20.2921 165.795 20.2921C164.473 20.2921 163.416 19.8391 162.623 18.9332C162.158 18.4021 161.83 17.6951 161.637 16.8122L161.622 16.738H168.871C169.33 16.738 169.689 16.6169 169.95 16.3749L170.013 16.3118C170.277 16.0277 170.409 15.639 170.409 15.1459C170.409 14.0094 170.142 12.9775 169.609 12.0501C169.075 11.1227 168.311 10.3882 167.317 9.84682C166.323 9.30539 165.139 9.03467 163.765 9.03467C162.147 9.03467 160.762 9.35631 159.61 9.9996C158.458 10.6429 157.578 11.5408 156.97 12.6933C156.362 13.8459 156.058 15.1887 156.058 16.7219C156.058 18.18 156.372 19.4639 157.001 20.5736C157.63 21.6832 158.505 22.5463 159.626 23.1628C160.747 23.7793 162.047 24.0875 163.527 24.0875ZM161.434 14.6795C161.434 14.9457 161.441 15.2021 161.456 15.4488L161.458 15.4836H163.923C164.325 15.4836 164.526 15.2585 164.526 14.8082C164.526 13.3393 164.365 12.2886 164.042 11.6561C163.72 11.0235 163.374 10.7072 163.004 10.7072C162.718 10.7072 162.459 10.8279 162.227 11.0691C161.994 11.3103 161.804 11.7204 161.656 12.2994C161.508 12.8783 161.434 13.6717 161.434 14.6795ZM180.019 23.7659C180.273 23.7659 180.466 23.6988 180.598 23.5648C180.73 23.4308 180.796 23.2566 180.796 23.0422C180.796 22.8599 180.749 22.7018 180.654 22.5677C180.559 22.4337 180.4 22.3506 180.178 22.3185L178.989 22.0772C178.788 22.0343 178.64 21.9245 178.545 21.7476C178.449 21.5706 178.402 21.3321 178.402 21.0319V15.371C178.402 14.7384 178.439 14.2185 178.513 13.811C178.587 13.4036 178.695 13.1008 178.838 12.9024C178.981 12.7041 179.147 12.6049 179.337 12.6049C179.528 12.6049 179.665 12.6746 179.75 12.814C179.834 12.9533 179.882 13.1463 179.893 13.3929L179.908 14.0362C179.93 14.7653 180.128 15.3281 180.503 15.7248C180.878 16.1215 181.457 16.3199 182.239 16.3199C183.043 16.3199 183.698 16.0304 184.206 15.4514C184.713 14.8725 184.967 13.9665 184.967 12.7335C184.967 11.4899 184.724 10.5625 184.238 9.95135C183.751 9.34023 183.054 9.03467 182.144 9.03467C181.394 9.03467 180.701 9.26786 180.067 9.73424C179.433 10.2006 178.923 10.9136 178.537 11.8732C178.472 12.0331 178.413 12.2001 178.36 12.3742L178.332 12.4669L178.212 9.96743C178.183 9.672 178.132 9.45704 178.058 9.32256L178.029 9.2759C177.939 9.14725 177.805 9.08292 177.625 9.08292C177.498 9.08292 177.345 9.10436 177.165 9.14725C176.985 9.19013 176.763 9.26518 176.499 9.3724L171.995 10.675C171.741 10.7715 171.562 10.8868 171.456 11.0208C171.35 11.1548 171.297 11.3076 171.297 11.4791C171.297 11.6292 171.332 11.7525 171.401 11.849C171.469 11.9455 171.578 12.0367 171.726 12.1224L172.138 12.1707C172.275 12.235 172.373 12.3235 172.431 12.436C172.489 12.5486 172.519 12.7336 172.519 12.9909V21.1606C172.519 21.4822 172.492 21.7127 172.439 21.8521C172.386 21.9915 172.291 22.0933 172.154 22.1576L171.789 22.3024C171.652 22.3989 171.543 22.5034 171.464 22.616C171.385 22.7286 171.345 22.8706 171.345 23.0422C171.345 23.2673 171.411 23.4442 171.543 23.5729C171.675 23.7015 171.858 23.7659 172.09 23.7659H180.019ZM196.718 22.8331C195.714 23.7015 194.27 24.1357 192.389 24.1357C191.754 24.1357 191.228 24.0768 190.811 23.9588C190.393 23.8409 190.055 23.723 189.796 23.605C189.537 23.4871 189.328 23.4281 189.169 23.4281C189.011 23.4281 188.802 23.4871 188.543 23.605L187.766 23.9588C187.507 24.0768 187.288 24.1357 187.108 24.1357C186.949 24.1357 186.801 24.0821 186.664 23.9749C186.526 23.8677 186.421 23.6533 186.347 23.3316L185.855 20.1313C185.76 19.7239 185.744 19.3808 185.808 19.1021C185.871 18.8233 186.014 18.641 186.236 18.5553C186.468 18.448 186.698 18.4427 186.926 18.5392C187.153 18.6357 187.356 18.8072 187.536 19.0538C188.139 19.9866 188.683 20.721 189.169 21.257C189.656 21.7931 190.129 22.171 190.589 22.3908C191.049 22.6106 191.532 22.7205 192.04 22.7205C192.579 22.7205 192.981 22.5919 193.245 22.3345C193.509 22.0772 193.641 21.7502 193.641 21.3535C193.641 21.0533 193.565 20.7799 193.411 20.5334C193.258 20.2868 192.978 20.0589 192.571 19.8499C192.164 19.6408 191.58 19.4344 190.819 19.2307C189.645 18.9305 188.673 18.5392 187.901 18.0567C187.129 17.5743 186.555 16.9953 186.18 16.3199C185.805 15.6444 185.617 14.8564 185.617 13.9558C185.617 12.9373 185.868 12.0608 186.37 11.3264C186.873 10.592 187.56 10.0264 188.432 9.62971C189.304 9.23302 190.285 9.03467 191.374 9.03467C192.029 9.03467 192.563 9.099 192.975 9.22766C193.388 9.35631 193.707 9.48497 193.935 9.61363C194.162 9.74228 194.334 9.80661 194.45 9.80661C194.577 9.80661 194.765 9.74496 195.013 9.62167C195.262 9.49837 195.513 9.37776 195.766 9.25982C196.02 9.14189 196.232 9.08292 196.401 9.08292C196.591 9.08292 196.744 9.14725 196.861 9.2759C196.977 9.40456 197.056 9.62435 197.098 9.93527L197.511 12.8944C197.585 13.3232 197.595 13.6529 197.542 13.8834C197.49 14.1139 197.352 14.2613 197.13 14.3257C196.95 14.3686 196.76 14.3337 196.559 14.2211C196.358 14.1086 196.158 13.929 195.957 13.6824C195.185 12.5138 194.479 11.6882 193.84 11.2058C193.2 10.7233 192.521 10.4821 191.802 10.4821C191.284 10.4821 190.893 10.5946 190.628 10.8198C190.364 11.0449 190.232 11.3398 190.232 11.7043C190.232 11.9509 190.29 12.1814 190.406 12.3958C190.523 12.6103 190.737 12.8113 191.049 12.9989C191.36 13.1865 191.802 13.3715 192.373 13.5537C193.906 14.0255 195.095 14.5267 195.941 15.0574C196.787 15.5881 197.379 16.1966 197.717 16.8827C198.055 17.5689 198.224 18.3676 198.224 19.279C198.224 20.7799 197.722 21.9647 196.718 22.8331Z" fill="white"/>
</svg>
