<svg width="230" height="26" viewBox="0 0 230 26" fill="none" xmlns="http://www.w3.org/2000/svg">
<path fill-rule="evenodd" clip-rule="evenodd" d="M73.3081 23.0261C73.3081 23.5192 73.0596 23.7658 72.5627 23.7658H63.8091C63.5977 23.7658 63.4259 23.7042 63.2937 23.5809C63.1616 23.4576 63.0955 23.2834 63.0955 23.0582C63.0955 22.8652 63.1404 22.7098 63.2303 22.5918C63.3201 22.4739 63.4602 22.3774 63.6505 22.3024L64.3324 22.0933C64.5016 22.0397 64.6337 21.9378 64.7289 21.7877C64.824 21.6376 64.8716 21.4232 64.8716 21.1444V11.849C64.8716 11.6989 64.8346 11.5729 64.7606 11.4711C64.6866 11.3692 64.5491 11.2754 64.3483 11.1896L63.4285 10.8841C63.1853 10.7662 63.0109 10.6402 62.9052 10.5062C62.7995 10.3721 62.7466 10.2086 62.7466 10.0157C62.7466 9.82267 62.8127 9.66453 62.9448 9.54123L62.9967 9.49789C63.1234 9.40349 63.2884 9.35629 63.4919 9.35629H64.8835L64.8726 9.26231C64.8428 9.07435 64.7685 8.89393 64.6496 8.72105C64.491 8.49054 64.3113 8.23054 64.1104 7.94107C63.9095 7.65159 63.7298 7.30583 63.5712 6.90377C63.4126 6.50172 63.3333 6.00586 63.3333 5.41618C63.3333 4.01168 63.8091 2.88862 64.7606 2.04699C65.7121 1.20536 67.0653 0.784546 68.8202 0.784546C69.9514 0.784546 70.8897 0.966808 71.635 1.33134C72.3804 1.69586 72.938 2.181 73.3081 2.78676C73.6781 3.39252 73.8631 4.05457 73.8631 4.7729C73.8631 5.61989 73.6437 6.25513 73.205 6.67862C72.7662 7.10212 72.2033 7.31387 71.5161 7.31387C70.7549 7.31387 70.1417 7.06727 69.6766 6.57409C69.2114 6.08091 68.9788 5.4269 68.9788 4.61208V3.18077C68.9788 2.80553 68.9048 2.52945 68.7568 2.35255C68.6088 2.17564 68.3815 2.08719 68.0749 2.08719C67.6837 2.08719 67.3877 2.22121 67.1869 2.48924C66.986 2.75728 66.8856 3.14325 66.8856 3.64715C66.8856 4.16178 67.0045 4.64424 67.2424 5.09454C67.4802 5.54484 67.7736 5.96565 68.1225 6.35698C68.4714 6.74831 68.8202 7.12356 69.1691 7.48273C69.518 7.84189 69.8114 8.1957 70.0492 8.54414L70.117 8.6486C70.2455 8.85734 70.3311 9.06512 70.3739 9.27194L70.3884 9.35629H72.7372C72.9803 9.35629 73.168 9.40722 73.3001 9.50907C73.4323 9.61092 73.4984 9.76906 73.4984 9.98349C73.4984 10.3051 73.3609 10.5678 73.086 10.7715C72.8112 10.9752 72.3777 11.0771 71.7857 11.0771H70.6598V21.0962C70.6598 21.3964 70.7047 21.6269 70.7946 21.7877C70.8844 21.9486 71.0298 22.045 71.2307 22.0772L72.5944 22.2863C72.8376 22.3184 73.0173 22.3962 73.1336 22.5195C73.2499 22.6428 73.3081 22.8116 73.3081 23.0261ZM42.0836 23.396C41.1321 23.857 40.022 24.0875 38.7534 24.0875C37.4107 24.0875 36.2082 23.8034 35.1457 23.2351C34.0832 22.6669 33.2454 21.844 32.6322 20.7665C32.019 19.689 31.7124 18.3784 31.7124 16.8345C31.7124 15.3442 32.0322 14.0121 32.6718 12.8381C33.3114 11.6641 34.2021 10.7367 35.3439 10.0559C36.4857 9.37508 37.8178 9.03467 39.3401 9.03467C40.6405 9.03467 41.7374 9.22766 42.6307 9.61363C43.524 9.9996 44.2059 10.5223 44.6764 11.1816C45.1468 11.841 45.3821 12.5781 45.3821 13.3929C45.3821 14.2506 45.1363 14.9234 44.6447 15.4112C44.1531 15.899 43.4844 16.1429 42.6386 16.1429C41.7717 16.1429 41.1136 15.8937 40.6643 15.3951C40.215 14.8966 39.9903 14.2131 39.9903 13.3447V12.3154C39.9903 11.7901 39.8952 11.3934 39.7049 11.1253C39.5146 10.8573 39.245 10.7233 38.8961 10.7233C38.5472 10.7233 38.2327 10.8653 37.9526 11.1495C37.6724 11.4336 37.4557 11.8598 37.3024 12.428C37.1491 12.9962 37.0724 13.6985 37.0724 14.5347C37.0724 15.7355 37.2495 16.7433 37.6037 17.5582C37.9579 18.373 38.4415 18.9841 39.0547 19.3915C39.6679 19.7989 40.3656 20.0026 41.148 20.0026C41.9303 20.0026 42.5858 19.8874 43.1144 19.6569C43.643 19.4264 44.05 19.0377 44.3354 18.4909C44.494 18.3408 44.6182 18.2443 44.7081 18.2015C44.798 18.1586 44.8852 18.1371 44.9698 18.1371C45.0755 18.1478 45.1627 18.1988 45.2314 18.2899C45.3001 18.381 45.3292 18.5231 45.3186 18.7161C45.2341 19.7668 44.9116 20.6942 44.3513 21.4983C43.791 22.3024 43.0351 22.9349 42.0836 23.396ZM58.2034 23.0743C57.014 23.7283 55.6317 24.0553 54.0565 24.0553C52.5235 24.0553 51.1782 23.7364 50.0206 23.0984C48.863 22.4605 47.9617 21.5787 47.3168 20.4529C46.6719 19.3272 46.3495 18.0246 46.3495 16.545C46.3495 15.1298 46.6878 13.8566 47.3644 12.7255C48.041 11.5944 48.9766 10.6965 50.1713 10.0318C51.3659 9.36704 52.7403 9.03467 54.2943 9.03467C55.8379 9.03467 57.1858 9.35631 58.3382 9.9996C59.4905 10.6429 60.3891 11.5328 61.034 12.6692C61.6789 13.8057 62.0014 15.1191 62.0014 16.6093C62.0014 18.0246 61.6657 19.2924 60.9944 20.4127C60.323 21.5331 59.3927 22.4203 58.2034 23.0743ZM55.2617 22.3828C54.9339 22.4471 54.6141 22.3024 54.3023 21.9486C53.9904 21.5948 53.6944 20.9997 53.4142 20.1635C53.1341 19.3272 52.8671 18.2283 52.6134 16.8666C52.3702 15.505 52.2328 14.3846 52.2011 13.5055C52.1694 12.6263 52.2328 11.9616 52.3914 11.5113C52.55 11.061 52.7931 10.7983 53.1208 10.7233C53.4486 10.659 53.7684 10.8037 54.0803 11.1575C54.3921 11.5113 54.6908 12.1063 54.9762 12.9426C55.2617 13.7789 55.5313 14.8778 55.785 16.2394C56.0387 17.6011 56.1788 18.7241 56.2052 19.6086C56.2317 20.4931 56.1629 21.1606 55.9991 21.6108C55.8352 22.0611 55.5894 22.3185 55.2617 22.3828ZM83.6317 23.7658C84.1286 23.7658 84.3771 23.5192 84.3771 23.0261C84.3771 22.8116 84.3189 22.6428 84.2026 22.5195C84.0863 22.3962 83.9066 22.3184 83.6634 22.2863L82.2997 22.0772C82.0988 22.045 81.9534 21.9486 81.8636 21.7877C81.7737 21.6269 81.7288 21.3964 81.7288 21.0962V11.0771H82.8547C83.4467 11.0771 83.8802 10.9752 84.155 10.7715C84.4299 10.5678 84.5674 10.3051 84.5674 9.98349C84.5674 9.76906 84.5013 9.61092 84.3691 9.50907C84.237 9.40722 84.0493 9.35629 83.8062 9.35629H81.4574L81.4429 9.27194C81.4001 9.06512 81.3145 8.85734 81.186 8.6486L81.1182 8.54414C80.8804 8.1957 80.587 7.84189 80.2381 7.48273C79.8892 7.12356 79.5404 6.74831 79.1915 6.35698C78.8426 5.96565 78.5492 5.54484 78.3114 5.09454C78.0735 4.64424 77.9546 4.16178 77.9546 3.64715C77.9546 3.14325 78.055 2.75728 78.2559 2.48924C78.4567 2.22121 78.7527 2.08719 79.1439 2.08719C79.4505 2.08719 79.6778 2.17564 79.8258 2.35255C79.9738 2.52945 80.0478 2.80553 80.0478 3.18077V4.61208C80.0478 5.4269 80.2804 6.08091 80.7456 6.57409C81.2107 7.06727 81.8239 7.31387 82.5851 7.31387C83.2723 7.31387 83.8352 7.10212 84.274 6.67862C84.7127 6.25513 84.9321 5.61989 84.9321 4.7729C84.9321 4.05457 84.7471 3.39252 84.3771 2.78676C84.007 2.181 83.4494 1.69586 82.704 1.33134C81.9587 0.966808 81.0204 0.784546 79.8892 0.784546C78.1343 0.784546 76.7811 1.20536 75.8296 2.04699C74.8781 2.88862 74.4023 4.01168 74.4023 5.41618C74.4023 6.00586 74.4816 6.50172 74.6402 6.90377C74.7988 7.30583 74.9785 7.65159 75.1794 7.94107C75.3803 8.23054 75.56 8.49054 75.7186 8.72105C75.8375 8.89393 75.9118 9.07435 75.9416 9.26231L75.9525 9.35629H74.5609C74.3574 9.35629 74.1924 9.40349 74.0657 9.49789L74.0138 9.54123C73.8817 9.66453 73.8156 9.82267 73.8156 10.0157C73.8156 10.2086 73.8685 10.3721 73.9742 10.5062C74.0799 10.6402 74.2543 10.7662 74.4975 10.8841L75.4173 11.1896C75.6181 11.2754 75.7556 11.3692 75.8296 11.4711C75.9036 11.5729 75.9406 11.6989 75.9406 11.849V21.1444C75.9406 21.4232 75.893 21.6376 75.7979 21.7877C75.7027 21.9378 75.5706 22.0397 75.4014 22.0933L74.7195 22.3024C74.5292 22.3774 74.3891 22.4739 74.2993 22.5918C74.2094 22.7098 74.1645 22.8652 74.1645 23.0582C74.1645 23.2834 74.2306 23.4576 74.3627 23.5809C74.4949 23.7042 74.6666 23.7658 74.8781 23.7658H83.6317ZM96.0486 23.2995C95.0231 23.8248 93.839 24.0875 92.4963 24.0875C91.0163 24.0875 89.7159 23.7793 88.5953 23.1628C87.4746 22.5463 86.5998 21.6832 85.9708 20.5736C85.3417 19.4639 85.0272 18.18 85.0272 16.7219C85.0272 15.1887 85.3312 13.8459 85.939 12.6933C86.5469 11.5408 87.4271 10.6429 88.5794 9.9996C89.7318 9.35631 91.1167 9.03467 92.7342 9.03467C94.1086 9.03467 95.2927 9.30539 96.2864 9.84682C97.2802 10.3882 98.044 11.1227 98.5779 12.0501C99.1118 12.9775 99.3787 14.0094 99.3787 15.1459C99.3787 15.639 99.2466 16.0277 98.9823 16.3118L98.9192 16.3749C98.6588 16.6169 98.2992 16.738 97.8405 16.738H90.5912L90.6067 16.8122C90.7991 17.6951 91.1276 18.4021 91.5924 18.9332C92.3853 19.8391 93.4425 20.2921 94.764 20.2921C95.6098 20.2921 96.3578 20.0991 97.008 19.7132C97.6581 19.3272 98.0942 18.7911 98.3163 18.105C98.4431 17.9656 98.5568 17.8718 98.6572 17.8235C98.7576 17.7753 98.8449 17.7512 98.9189 17.7512C99.0246 17.7512 99.1144 17.794 99.1884 17.8798C99.2625 17.9656 99.2995 18.1103 99.2995 18.314C99.2995 19.3647 99.014 20.327 98.4431 21.2008C97.8722 22.0746 97.074 22.7741 96.0486 23.2995ZM90.4257 15.4488C90.4106 15.2021 90.4031 14.9457 90.4031 14.6795C90.4031 13.6717 90.4771 12.8783 90.6251 12.2994C90.7731 11.7204 90.9634 11.3103 91.196 11.0691C91.4286 10.8279 91.6876 10.7072 91.973 10.7072C92.3431 10.7072 92.6893 11.0235 93.0117 11.6561C93.3342 12.2886 93.4954 13.3393 93.4954 14.8082C93.4954 15.2585 93.2945 15.4836 92.8928 15.4836H90.4278L90.4257 15.4488ZM111.209 23.2995C110.183 23.8248 108.999 24.0875 107.657 24.0875C106.177 24.0875 104.876 23.7793 103.756 23.1628C102.635 22.5463 101.76 21.6832 101.131 20.5736C100.502 19.4639 100.188 18.18 100.188 16.7219C100.188 15.1887 100.491 13.8459 101.099 12.6933C101.707 11.5408 102.587 10.6429 103.74 9.9996C104.892 9.35631 106.277 9.03467 107.895 9.03467C109.269 9.03467 110.453 9.30539 111.447 9.84682C112.44 10.3882 113.204 11.1227 113.738 12.0501C114.272 12.9775 114.539 14.0094 114.539 15.1459C114.539 15.639 114.407 16.0277 114.143 16.3118L114.08 16.3749C113.819 16.6169 113.459 16.738 113.001 16.738H105.751L105.767 16.8122C105.959 17.6951 106.288 18.4021 106.753 18.9332C107.546 19.8391 108.603 20.2921 109.924 20.2921C110.77 20.2921 111.518 20.0991 112.168 19.7132C112.818 19.3272 113.255 18.7911 113.477 18.105C113.603 17.9656 113.717 17.8718 113.817 17.8235C113.918 17.7753 114.005 17.7512 114.079 17.7512C114.185 17.7512 114.275 17.794 114.349 17.8798C114.423 17.9656 114.46 18.1103 114.46 18.314C114.46 19.3647 114.174 20.327 113.603 21.2008C113.033 22.0746 112.234 22.7741 111.209 23.2995ZM105.586 15.4488C105.571 15.2021 105.563 14.9457 105.563 14.6795C105.563 13.6717 105.637 12.8783 105.785 12.2994C105.933 11.7204 106.124 11.3103 106.356 11.0691C106.589 10.8279 106.848 10.7072 107.133 10.7072C107.503 10.7072 107.85 11.0235 108.172 11.6561C108.494 12.2886 108.656 13.3393 108.656 14.8082C108.656 15.2585 108.455 15.4836 108.053 15.4836H105.588L105.586 15.4488ZM124.728 23.5648C124.596 23.6988 124.403 23.7659 124.149 23.7659H116.22C115.987 23.7659 115.805 23.7015 115.673 23.5729C115.541 23.4442 115.475 23.2673 115.475 23.0422C115.475 22.8706 115.514 22.7286 115.594 22.616C115.673 22.5034 115.781 22.3989 115.919 22.3024L116.283 22.1576C116.421 22.0933 116.516 21.9915 116.569 21.8521C116.622 21.7127 116.648 21.4822 116.648 21.1606V12.9909C116.648 12.7336 116.619 12.5486 116.561 12.436C116.503 12.3235 116.405 12.235 116.268 12.1707L115.855 12.1224C115.707 12.0367 115.599 11.9455 115.53 11.849C115.461 11.7525 115.427 11.6292 115.427 11.4791C115.427 11.3076 115.48 11.1548 115.586 11.0208C115.691 10.8868 115.871 10.7715 116.125 10.675L120.629 9.3724C120.893 9.26518 121.115 9.19013 121.295 9.14725C121.474 9.10436 121.628 9.08292 121.754 9.08292C121.934 9.08292 122.069 9.14725 122.159 9.2759L122.188 9.32256C122.262 9.45704 122.313 9.672 122.341 9.96743L122.462 12.4664L122.489 12.3742C122.543 12.2001 122.602 12.0331 122.666 11.8732C123.052 10.9136 123.562 10.2006 124.197 9.73424C124.831 9.26786 125.523 9.03467 126.274 9.03467C127.183 9.03467 127.881 9.34023 128.367 9.95135C128.854 10.5625 129.097 11.4899 129.097 12.7335C129.097 13.9665 128.843 14.8725 128.336 15.4514C127.828 16.0304 127.173 16.3199 126.369 16.3199C125.587 16.3199 125.008 16.1215 124.633 15.7248C124.257 15.3281 124.059 14.7653 124.038 14.0362L124.022 13.3929C124.012 13.1463 123.964 12.9533 123.879 12.814C123.795 12.6746 123.657 12.6049 123.467 12.6049C123.277 12.6049 123.11 12.7041 122.968 12.9024C122.825 13.1008 122.716 13.4036 122.642 13.811C122.568 14.2185 122.531 14.7384 122.531 15.371V21.0319C122.531 21.3321 122.579 21.5706 122.674 21.7476C122.769 21.9245 122.917 22.0343 123.118 22.0772L124.308 22.3185C124.53 22.3506 124.688 22.4337 124.783 22.5677C124.878 22.7018 124.926 22.8599 124.926 23.0422C124.926 23.2566 124.86 23.4308 124.728 23.5648ZM137.406 24.0553C138.982 24.0553 140.364 23.7283 141.553 23.0743C142.743 22.4203 143.673 21.5331 144.344 20.4127C145.016 19.2924 145.351 18.0246 145.351 16.6093C145.351 15.1191 145.029 13.8057 144.384 12.6692C143.739 11.5328 142.84 10.6429 141.688 9.9996C140.536 9.35631 139.188 9.03467 137.644 9.03467C136.09 9.03467 134.716 9.36704 133.521 10.0318C132.327 10.6965 131.391 11.5944 130.714 12.7255C130.038 13.8566 129.699 15.1298 129.699 16.545C129.699 18.0246 130.022 19.3272 130.667 20.4529C131.312 21.5787 132.213 22.4605 133.371 23.0984C134.528 23.7364 135.873 24.0553 137.406 24.0553ZM137.652 21.9486C137.964 22.3024 138.284 22.4471 138.612 22.3828C138.939 22.3185 139.185 22.0611 139.349 21.6108C139.513 21.1606 139.581 20.4931 139.555 19.6086C139.529 18.7241 139.389 17.6011 139.135 16.2394C138.881 14.8778 138.612 13.7789 138.326 12.9426C138.041 12.1063 137.742 11.5113 137.43 11.1575C137.118 10.8037 136.798 10.659 136.471 10.7233C136.143 10.7983 135.9 11.061 135.741 11.5113C135.583 11.9616 135.519 12.6263 135.551 13.5055C135.583 14.3846 135.72 15.505 135.963 16.8666C136.217 18.2283 136.484 19.3272 136.764 20.1635C137.044 20.9997 137.34 21.5948 137.652 21.9486ZM157.927 24.0875C158.815 24.0875 159.544 23.924 160.115 23.597C160.686 23.27 161.111 22.8813 161.392 22.431C161.672 21.9807 161.812 21.568 161.812 21.1927C161.812 21.0319 161.778 20.8979 161.709 20.7907C161.64 20.6835 161.548 20.6298 161.431 20.6298C161.378 20.6298 161.331 20.6406 161.289 20.662C161.246 20.6835 161.209 20.7156 161.178 20.7585C161.125 20.9515 161.043 21.0855 160.932 21.1606C160.821 21.2356 160.702 21.2731 160.575 21.2731C160.395 21.2731 160.26 21.2115 160.171 21.0882C160.081 20.9649 160.036 20.8014 160.036 20.5977V13.4894C160.036 12.0742 159.557 10.9779 158.601 10.2006C157.644 9.42332 156.145 9.03467 154.105 9.03467C152.519 9.03467 151.195 9.23302 150.132 9.62971C149.07 10.0264 148.272 10.533 147.738 11.1495C147.204 11.7659 146.937 12.3958 146.937 13.0391C146.937 13.7253 147.135 14.2479 147.532 14.6071C147.928 14.9663 148.502 15.1459 149.252 15.1459C150.172 15.1459 150.896 14.8966 151.425 14.398C151.953 13.8995 152.218 13.2535 152.218 12.4602V11.2379C152.218 10.9377 152.31 10.7045 152.495 10.5383C152.68 10.3722 152.91 10.2891 153.185 10.2891C153.481 10.2891 153.716 10.399 153.891 10.6188C154.065 10.8385 154.152 11.1361 154.152 11.5113L154.152 16.1992L154.068 16.1809C153.813 16.1316 153.517 16.1035 153.182 16.0965L153.011 16.0947C150.738 16.0947 149.044 16.4807 147.928 17.2526C146.813 18.0246 146.255 19.102 146.255 20.4851C146.255 21.5358 146.638 22.3989 147.405 23.0743C148.171 23.7498 149.189 24.0875 150.458 24.0875C151.409 24.0875 152.297 23.8918 153.122 23.5005C153.74 23.207 154.243 22.8215 154.629 22.3441L154.651 22.3162L154.674 22.3882C154.796 22.7358 155.02 23.0472 155.344 23.3225L155.445 23.404C156.032 23.8597 156.859 24.0875 157.927 24.0875ZM152.464 21.056C152.723 21.4045 153.064 21.5787 153.486 21.5787L153.577 21.5756C153.757 21.563 153.932 21.5128 154.1 21.4248L154.152 21.3956V17.2687L154.073 17.2446C153.893 17.1964 153.682 17.1722 153.439 17.1722C153.027 17.1722 152.696 17.3652 152.448 17.7512C152.199 18.1372 152.075 18.7054 152.075 19.4559C152.075 20.1742 152.205 20.7076 152.464 21.056ZM169.107 24.1357C170.988 24.1357 172.431 23.7015 173.436 22.8331C174.44 21.9647 174.942 20.7799 174.942 19.279C174.942 18.3676 174.773 17.5689 174.435 16.8827C174.097 16.1966 173.505 15.5881 172.659 15.0574C171.813 14.5267 170.624 14.0255 169.091 13.5537C168.52 13.3715 168.078 13.1865 167.767 12.9989C167.455 12.8113 167.241 12.6103 167.124 12.3958C167.008 12.1814 166.95 11.9509 166.95 11.7043C166.95 11.3398 167.082 11.0449 167.346 10.8198C167.611 10.5946 168.002 10.4821 168.52 10.4821C169.239 10.4821 169.918 10.7233 170.558 11.2058C171.197 11.6882 171.903 12.5138 172.675 13.6824C172.876 13.929 173.076 14.1086 173.277 14.2211C173.478 14.3337 173.668 14.3686 173.848 14.3257C174.07 14.2613 174.208 14.1139 174.26 13.8834C174.313 13.6529 174.303 13.3232 174.229 12.8944L173.816 9.93527C173.774 9.62435 173.695 9.40456 173.579 9.2759C173.462 9.14725 173.309 9.08292 173.119 9.08292C172.95 9.08292 172.738 9.14189 172.484 9.25982C172.231 9.37776 171.98 9.49837 171.731 9.62167C171.483 9.74496 171.295 9.80661 171.168 9.80661C171.052 9.80661 170.88 9.74228 170.653 9.61363C170.425 9.48497 170.106 9.35631 169.693 9.22766C169.281 9.099 168.747 9.03467 168.092 9.03467C167.003 9.03467 166.022 9.23302 165.15 9.62971C164.278 10.0264 163.591 10.592 163.088 11.3264C162.586 12.0608 162.335 12.9373 162.335 13.9558C162.335 14.8564 162.523 15.6444 162.898 16.3199C163.273 16.9953 163.847 17.5743 164.619 18.0567C165.391 18.5392 166.363 18.9305 167.537 19.2307C168.298 19.4344 168.882 19.6408 169.289 19.8499C169.696 20.0589 169.976 20.2868 170.129 20.5334C170.283 20.7799 170.359 21.0533 170.359 21.3535C170.359 21.7502 170.227 22.0772 169.963 22.3345C169.699 22.5919 169.297 22.7205 168.758 22.7205C168.25 22.7205 167.767 22.6106 167.307 22.3908C166.847 22.171 166.374 21.7931 165.887 21.257C165.401 20.721 164.857 19.9866 164.254 19.0538C164.074 18.8072 163.871 18.6357 163.643 18.5392C163.416 18.4427 163.186 18.448 162.954 18.5553C162.732 18.641 162.589 18.8233 162.525 19.1021C162.462 19.3808 162.478 19.7239 162.573 20.1313L163.065 23.3316C163.139 23.6533 163.244 23.8677 163.382 23.9749C163.519 24.0821 163.667 24.1357 163.826 24.1357C164.006 24.1357 164.225 24.0768 164.484 23.9588L165.261 23.605C165.52 23.4871 165.729 23.4281 165.887 23.4281C166.046 23.4281 166.255 23.4871 166.514 23.605C166.773 23.723 167.111 23.8409 167.529 23.9588C167.946 24.0768 168.472 24.1357 169.107 24.1357ZM184.14 23.5326C183.442 23.9025 182.618 24.0875 181.666 24.0875C180.059 24.0875 178.851 23.6961 178.043 22.9135C177.234 22.1308 176.829 20.8978 176.829 19.2146V11.9455C176.829 11.7203 176.808 11.5488 176.766 11.4309C176.724 11.3129 176.618 11.2164 176.449 11.1414L175.703 10.9002C175.524 10.8144 175.407 10.7099 175.355 10.5866C175.302 10.4633 175.275 10.3105 175.275 10.1282C175.275 9.90307 175.355 9.71812 175.513 9.57339C175.672 9.42865 175.867 9.35628 176.1 9.35628H176.877C176.972 9.35628 177.073 9.31875 177.178 9.2437C177.284 9.16865 177.427 9.01855 177.606 8.79341L180.54 6.33285C180.752 6.07553 180.963 5.87987 181.174 5.74585C181.386 5.61184 181.597 5.54483 181.809 5.54483C182.052 5.54483 182.242 5.61988 182.38 5.76998L182.423 5.82319C182.532 5.97355 182.586 6.19168 182.586 6.47759L182.585 9.35628H185.9C186.133 9.35628 186.312 9.4072 186.439 9.50906C186.566 9.61091 186.63 9.76905 186.63 9.98348C186.63 10.2837 186.498 10.541 186.233 10.7554L186.174 10.7997C185.908 10.9846 185.504 11.0771 184.965 11.0771H182.585L182.586 18.4105C182.586 19.2146 182.721 19.8096 182.99 20.1956C183.26 20.5816 183.654 20.7745 184.172 20.7745C184.394 20.7745 184.6 20.7263 184.79 20.6298C184.98 20.5333 185.152 20.4073 185.306 20.2519C185.459 20.0964 185.604 19.9222 185.742 19.7292C185.879 19.5362 186.011 19.3432 186.138 19.1503C186.244 19.1074 186.336 19.1261 186.416 19.2065C186.495 19.287 186.529 19.4505 186.519 19.6971C186.445 20.5655 186.204 21.3294 185.797 21.9887C185.39 22.6481 184.838 23.1627 184.14 23.5326ZM194.527 24.0875C195.87 24.0875 197.054 23.8248 198.079 23.2995C199.105 22.7741 199.903 22.0746 200.474 21.2008C201.045 20.327 201.33 19.3647 201.33 18.314C201.33 18.1103 201.293 17.9656 201.219 17.8798C201.145 17.794 201.055 17.7512 200.95 17.7512C200.876 17.7512 200.788 17.7753 200.688 17.8235C200.587 17.8718 200.474 17.9656 200.347 18.105C200.125 18.7911 199.689 19.3272 199.039 19.7132C198.388 20.0991 197.64 20.2921 196.795 20.2921C195.473 20.2921 194.416 19.8391 193.623 18.9332C193.158 18.4021 192.83 17.6951 192.637 16.8122L192.622 16.738H199.871C200.33 16.738 200.689 16.6169 200.95 16.3749L201.013 16.3118C201.277 16.0277 201.409 15.639 201.409 15.1459C201.409 14.0094 201.142 12.9775 200.609 12.0501C200.075 11.1227 199.311 10.3882 198.317 9.84682C197.323 9.30539 196.139 9.03467 194.765 9.03467C193.147 9.03467 191.762 9.35631 190.61 9.9996C189.458 10.6429 188.578 11.5408 187.97 12.6933C187.362 13.8459 187.058 15.1887 187.058 16.7219C187.058 18.18 187.372 19.4639 188.001 20.5736C188.63 21.6832 189.505 22.5463 190.626 23.1628C191.747 23.7793 193.047 24.0875 194.527 24.0875ZM192.434 14.6795C192.434 14.9457 192.441 15.2021 192.456 15.4488L192.458 15.4836H194.923C195.325 15.4836 195.526 15.2585 195.526 14.8082C195.526 13.3393 195.365 12.2886 195.042 11.6561C194.72 11.0235 194.374 10.7072 194.004 10.7072C193.718 10.7072 193.459 10.8279 193.227 11.0691C192.994 11.3103 192.804 11.7204 192.656 12.2994C192.508 12.8783 192.434 13.6717 192.434 14.6795ZM211.019 23.7659C211.273 23.7659 211.466 23.6988 211.598 23.5648C211.73 23.4308 211.796 23.2566 211.796 23.0422C211.796 22.8599 211.749 22.7018 211.654 22.5677C211.559 22.4337 211.4 22.3506 211.178 22.3185L209.989 22.0772C209.788 22.0343 209.64 21.9245 209.545 21.7476C209.449 21.5706 209.402 21.3321 209.402 21.0319V15.371C209.402 14.7384 209.439 14.2185 209.513 13.811C209.587 13.4036 209.695 13.1008 209.838 12.9024C209.981 12.7041 210.147 12.6049 210.337 12.6049C210.528 12.6049 210.665 12.6746 210.75 12.814C210.834 12.9533 210.882 13.1463 210.893 13.3929L210.908 14.0362C210.93 14.7653 211.128 15.3281 211.503 15.7248C211.878 16.1215 212.457 16.3199 213.24 16.3199C214.043 16.3199 214.698 16.0304 215.206 15.4514C215.713 14.8725 215.967 13.9665 215.967 12.7335C215.967 11.4899 215.724 10.5625 215.238 9.95135C214.751 9.34023 214.054 9.03467 213.144 9.03467C212.394 9.03467 211.701 9.26786 211.067 9.73424C210.433 10.2006 209.923 10.9136 209.537 11.8732C209.472 12.0331 209.413 12.2001 209.36 12.3742L209.332 12.4669L209.212 9.96743C209.183 9.672 209.132 9.45704 209.058 9.32256L209.029 9.2759C208.939 9.14725 208.805 9.08292 208.625 9.08292C208.498 9.08292 208.345 9.10436 208.165 9.14725C207.985 9.19013 207.763 9.26518 207.499 9.3724L202.995 10.675C202.741 10.7715 202.562 10.8868 202.456 11.0208C202.35 11.1548 202.297 11.3076 202.297 11.4791C202.297 11.6292 202.332 11.7525 202.401 11.849C202.469 11.9455 202.578 12.0367 202.726 12.1224L203.138 12.1707C203.275 12.235 203.373 12.3235 203.431 12.436C203.489 12.5486 203.519 12.7336 203.519 12.9909V21.1606C203.519 21.4822 203.492 21.7127 203.439 21.8521C203.386 21.9915 203.291 22.0933 203.154 22.1576L202.789 22.3024C202.652 22.3989 202.543 22.5034 202.464 22.616C202.385 22.7286 202.345 22.8706 202.345 23.0422C202.345 23.2673 202.411 23.4442 202.543 23.5729C202.675 23.7015 202.858 23.7659 203.09 23.7659H211.019ZM227.718 22.8331C226.714 23.7015 225.27 24.1357 223.389 24.1357C222.754 24.1357 222.228 24.0768 221.811 23.9588C221.393 23.8409 221.055 23.723 220.796 23.605C220.537 23.4871 220.328 23.4281 220.169 23.4281C220.011 23.4281 219.802 23.4871 219.543 23.605L218.766 23.9588C218.507 24.0768 218.288 24.1357 218.108 24.1357C217.949 24.1357 217.801 24.0821 217.664 23.9749C217.526 23.8677 217.421 23.6533 217.347 23.3316L216.855 20.1313C216.76 19.7239 216.744 19.3808 216.808 19.1021C216.871 18.8233 217.014 18.641 217.236 18.5553C217.468 18.448 217.698 18.4427 217.926 18.5392C218.153 18.6357 218.356 18.8072 218.536 19.0538C219.139 19.9866 219.683 20.721 220.169 21.257C220.656 21.7931 221.129 22.171 221.589 22.3908C222.049 22.6106 222.532 22.7205 223.04 22.7205C223.579 22.7205 223.981 22.5919 224.245 22.3345C224.509 22.0772 224.641 21.7502 224.641 21.3535C224.641 21.0533 224.565 20.7799 224.411 20.5334C224.258 20.2868 223.978 20.0589 223.571 19.8499C223.164 19.6408 222.58 19.4344 221.819 19.2307C220.645 18.9305 219.673 18.5392 218.901 18.0567C218.129 17.5743 217.556 16.9953 217.18 16.3199C216.805 15.6444 216.617 14.8564 216.617 13.9558C216.617 12.9373 216.868 12.0608 217.37 11.3264C217.873 10.592 218.56 10.0264 219.432 9.62971C220.304 9.23302 221.285 9.03467 222.374 9.03467C223.029 9.03467 223.563 9.099 223.975 9.22766C224.388 9.35631 224.707 9.48497 224.935 9.61363C225.162 9.74228 225.334 9.80661 225.45 9.80661C225.577 9.80661 225.765 9.74496 226.013 9.62167C226.262 9.49837 226.513 9.37776 226.766 9.25982C227.02 9.14189 227.232 9.08292 227.401 9.08292C227.591 9.08292 227.744 9.14725 227.861 9.2759C227.977 9.40456 228.056 9.62435 228.098 9.93527L228.511 12.8944C228.585 13.3232 228.595 13.6529 228.542 13.8834C228.49 14.1139 228.352 14.2613 228.13 14.3257C227.95 14.3686 227.76 14.3337 227.559 14.2211C227.358 14.1086 227.158 13.929 226.957 13.6824C226.185 12.5138 225.479 11.6882 224.84 11.2058C224.2 10.7233 223.521 10.4821 222.802 10.4821C222.284 10.4821 221.893 10.5946 221.628 10.8198C221.364 11.0449 221.232 11.3398 221.232 11.7043C221.232 11.9509 221.29 12.1814 221.406 12.3958C221.523 12.6103 221.737 12.8113 222.049 12.9989C222.361 13.1865 222.802 13.3715 223.373 13.5537C224.906 14.0255 226.095 14.5267 226.941 15.0574C227.787 15.5881 228.379 16.1966 228.717 16.8827C229.055 17.5689 229.224 18.3676 229.224 19.279C229.224 20.7799 228.722 21.9647 227.718 22.8331Z" fill="white"/>
<path fill-rule="evenodd" clip-rule="evenodd" d="M13.7022 4.67898C10.2828 1.26236 5.21422 0.770519 2.40339 3.58438C-0.408902 6.39678 0.0829209 11.4655 3.49649 14.8836C4.40717 15.7943 5.45649 16.4905 6.56418 16.9896C6.92758 14.8778 7.9696 12.8476 9.55161 11.1809C9.02768 10.9941 8.49061 10.8365 7.9302 10.6832C4.61149 9.77253 2.96235 7.00392 2.57706 3.75805C2.89573 4.14126 3.18586 4.54321 3.47514 4.94397C4.03641 5.72153 4.59445 6.49464 5.35141 7.11776C6.52893 8.08735 7.82146 8.46164 9.23549 8.87112C9.29009 8.88693 9.34487 8.90279 9.39983 8.91874C10.0697 9.11285 10.652 9.40037 11.1862 9.73605C12.5901 8.71004 14.1736 8.02701 15.8081 7.74533C15.3105 6.63759 14.6129 5.58969 13.7022 4.67898ZM7.91994 17.8012C8.13739 15.6864 9.1619 13.6183 10.8037 11.9764C14.2232 8.55979 19.2917 8.06649 22.1025 10.8818C24.9148 13.6942 24.4245 18.7629 21.0065 22.181C19.3647 23.8229 17.2967 24.8475 15.182 25.0664C14.9003 25.0941 14.6216 25.1087 14.3487 25.1087C12.5302 25.1087 10.9059 24.4709 9.70918 23.2742C8.33149 21.8979 7.69519 19.9539 7.91994 17.8012ZM12.9214 19.5365C14.0422 18.6812 15.255 18.3426 16.5743 17.9822C19.893 17.0714 21.5407 14.3028 21.9275 11.057C21.6115 11.438 21.3235 11.8373 21.0363 12.2353C20.4734 13.0156 19.9137 13.7913 19.1531 14.4167C17.972 15.3878 16.6765 15.7628 15.2561 16.1738L15.2561 16.1738L15.1047 16.2177C11.8575 17.1605 10.2521 19.9057 9.88144 23.1005C10.2013 22.7162 10.4944 22.3172 10.7859 21.9203C11.4186 21.0587 12.0442 20.2069 12.9214 19.5365Z" fill="#0E8784"/>
</svg>
