<svg width="24" height="20" viewBox="0 0 24 20" fill="none" xmlns="http://www.w3.org/2000/svg">
<path d="M23.9913 2.78642C23.1322 3.16782 22.2088 3.42468 21.2398 3.54047C22.2293 2.94793 22.9892 2.00902 23.3462 0.890108C22.4209 1.43886 21.3954 1.83778 20.3038 2.0528C19.431 1.12167 18.1846 0.539841 16.8069 0.539841C13.7139 0.539841 11.441 3.42566 12.1396 6.42142C8.15921 6.22196 4.62929 4.31495 2.26596 1.41648C1.01084 3.56966 1.61505 6.38639 3.74779 7.81276C2.96358 7.78746 2.22412 7.57244 1.57905 7.21341C1.52651 9.43274 3.11731 11.5091 5.42129 11.9712C4.74702 12.1541 4.00854 12.1969 3.25741 12.0529C3.86649 13.9561 5.63534 15.3406 7.73305 15.3795C5.71902 16.9586 3.18152 17.664 0.640137 17.3644C2.76023 18.7236 5.27924 19.5166 7.98408 19.5166C16.8789 19.5166 21.9043 12.0043 21.6007 5.26651C22.5367 4.5903 23.3491 3.74673 23.9913 2.78642Z" fill="#FEFCF7"/>
</svg>
