<svg width="25" height="24" viewBox="0 0 25 24" fill="none" xmlns="http://www.w3.org/2000/svg">
<path d="M22.9997 0.352554H2.22692C1.51471 0.352554 0.937744 0.929523 0.937744 1.64173V22.4155C0.937744 23.1268 1.51471 23.7037 2.22692 23.7037H13.4112V14.661H10.3677V11.1369H13.4112V8.53811C13.4112 5.52192 15.253 3.87955 17.9442 3.87955C19.2334 3.87955 20.3406 3.97588 20.6636 4.01869V7.1711L18.7975 7.17207C17.3342 7.17207 17.051 7.86774 17.051 8.88741V11.1379H20.5411L20.0867 14.662H17.051V23.7037H23.0017C23.7119 23.7037 24.2889 23.1268 24.2889 22.4145V1.64173C24.2889 0.929523 23.7119 0.352554 22.9997 0.352554Z" fill="#FDD6BA"/>
</svg>
