<svg width="24" height="24" viewBox="0 0 24 24" fill="none" xmlns="http://www.w3.org/2000/svg">
<path fill-rule="evenodd" clip-rule="evenodd" d="M12.0181 0.352577C8.84716 0.352577 8.45019 0.366199 7.20479 0.422631C2.96461 0.617224 0.608088 2.96985 0.413495 7.21393C0.35609 8.4603 0.342468 8.85727 0.342468 12.0282C0.342468 15.1991 0.35609 15.597 0.412522 16.8424C0.607115 21.0826 2.95975 23.4391 7.20382 23.6337C8.45019 23.6901 8.84716 23.7037 12.0181 23.7037C15.1889 23.7037 15.5869 23.6901 16.8323 23.6337C21.0686 23.4391 23.4309 21.0865 23.6226 16.8424C23.68 15.597 23.6936 15.1991 23.6936 12.0282C23.6936 8.85727 23.68 8.4603 23.6236 7.2149C23.4329 2.97861 21.0773 0.618197 16.8333 0.423604C15.5869 0.366199 15.1889 0.352577 12.0181 0.352577ZM12.0181 2.45715C15.1354 2.45715 15.5052 2.46882 16.7369 2.52525C19.901 2.66925 21.379 4.17054 21.523 7.31127C21.5794 8.54207 21.5901 8.9118 21.5901 12.0292C21.5901 15.1475 21.5784 15.5163 21.523 16.7471C21.378 19.8849 19.904 21.3891 16.7369 21.5331C15.5052 21.5895 15.1374 21.6012 12.0181 21.6012C8.90069 21.6012 8.53096 21.5895 7.30016 21.5331C4.12829 21.3881 2.65814 19.88 2.51414 16.7461C2.45771 15.5153 2.44603 15.1466 2.44603 12.0282C2.44603 8.91083 2.45868 8.54207 2.51414 7.3103C2.65911 4.17054 4.13316 2.66828 7.30016 2.52428C8.53193 2.46882 8.90069 2.45715 12.0181 2.45715ZM6.02266 12.0282C6.02266 8.71725 8.70707 6.03284 12.0181 6.03284C15.3291 6.03284 18.0135 8.71725 18.0135 12.0282C18.0135 15.3402 15.3291 18.0246 12.0181 18.0246C8.70707 18.0246 6.02266 15.3392 6.02266 12.0282ZM12.0181 15.92C9.86879 15.92 8.12621 14.1784 8.12621 12.0282C8.12621 9.87888 9.86879 8.1363 12.0181 8.1363C14.1674 8.1363 15.9099 9.87888 15.9099 12.0282C15.9099 14.1784 14.1674 15.92 12.0181 15.92ZM16.8488 5.79638C16.8488 5.02287 17.4764 4.39531 18.2509 4.39531C19.0244 4.39531 19.651 5.02287 19.651 5.79638C19.651 6.56989 19.0244 7.19745 18.2509 7.19745C17.4764 7.19745 16.8488 6.56989 16.8488 5.79638Z" fill="#FEFCF7"/>
</svg>
